<svg width="22" height="22" viewBox="0 0 22 22" fill="none" xmlns="http://www.w3.org/2000/svg">
<path fill-rule="evenodd" clip-rule="evenodd" d="M10.9999 1.75C7.25593 1.75 4.22505 4.77442 4.22505 8.5V8.50006C4.22496 9.58249 4.17157 10.7967 3.40603 11.9242L3.40364 11.9277L3.40363 11.9277C3.27776 12.1109 3.16727 12.261 3.06312 12.4025C2.9244 12.591 2.79694 12.7642 2.65938 12.9797C2.44614 13.3138 2.31389 13.6034 2.27127 13.8827C2.13332 14.7871 2.71013 15.5026 3.71902 15.9205C7.99799 17.6932 14.0019 17.6932 18.2808 15.9206C19.2897 15.5026 19.8665 14.7871 19.7286 13.8827L20.47 13.7696L19.7286 13.8827C19.686 13.6034 19.5537 13.3138 19.3405 12.9797C19.2029 12.7642 19.0755 12.591 18.9367 12.4025C18.8326 12.261 18.7221 12.1109 18.5962 11.9277L18.5938 11.9242C17.8283 10.7967 17.7749 9.58249 17.7748 8.50006V8.5C17.7748 4.77442 14.7439 1.75 10.9999 1.75ZM2.72505 8.49994C2.72509 3.94128 6.43221 0.25 10.9999 0.25C15.5677 0.25 19.2748 3.94131 19.2748 8.5H18.5248H19.2748C19.2749 9.56041 19.346 10.3606 19.8337 11.08C19.9015 11.1785 19.9914 11.302 20.0897 11.4368C20.2605 11.6711 20.4563 11.9399 20.6049 12.1727C20.8671 12.5836 21.1234 13.0791 21.2114 13.6565C21.4988 15.5402 20.1741 16.7598 18.8549 17.3063C14.2084 19.2312 7.79148 19.2312 3.14494 17.3063C1.82572 16.7598 0.501073 15.5402 0.788427 13.6565C0.876503 13.0791 1.13271 12.5836 1.39494 12.1727C1.54353 11.9399 1.7394 11.6711 1.91014 11.4368C2.00844 11.3019 2.09841 11.1785 2.16622 11.0799C2.65383 10.3606 2.72496 9.56034 2.72505 8.5" fill="#18191B"/>
<path fill-rule="evenodd" clip-rule="evenodd" d="M6.80731 17.2751C7.20763 17.1687 7.6184 17.407 7.72478 17.8073C8.09432 19.1978 9.40917 20.2499 10.9999 20.2499C12.5907 20.2499 13.9056 19.1978 14.2751 17.8073C14.3815 17.407 14.7923 17.1687 15.1926 17.2751C15.5929 17.3815 15.8312 17.7923 15.7248 18.1926C15.1773 20.2525 13.2581 21.7499 10.9999 21.7499C8.74177 21.7499 6.82253 20.2525 6.2751 18.1926C6.16871 17.7923 6.40699 17.3815 6.80731 17.2751Z" fill="#18191B"/>
</svg>
