<svg width="103" height="100" viewBox="0 0 103 100" fill="none" xmlns="http://www.w3.org/2000/svg">
<path d="M49.9713 23.7692H49.422V8.72039C49.422 7.57659 49.1967 6.44399 48.759 5.38726C48.3212 4.33052 47.6797 3.37036 46.8709 2.56157C46.0621 1.75278 45.1019 1.11122 44.0452 0.673506C42.9885 0.235795 41.8559 0.0105098 40.7121 0.0105133H8.82905C7.68525 0.0105098 6.55264 0.235795 5.49591 0.673506C4.43918 1.11122 3.479 1.75278 2.67021 2.56157C1.86143 3.37036 1.21986 4.33052 0.782142 5.38726C0.344429 6.44399 0.119139 7.57659 0.119141 8.72039V91.2796C0.119139 92.4234 0.344429 93.556 0.782142 94.6127C1.21986 95.6695 1.86143 96.6296 2.67021 97.4384C3.479 98.2472 4.43918 98.8888 5.49591 99.3265C6.55264 99.7642 7.68525 99.9895 8.82905 99.9895H40.7121C41.8559 99.9895 42.9885 99.7642 44.0452 99.3265C45.1019 98.8888 46.0621 98.2472 46.8709 97.4384C47.6797 96.6296 48.3212 95.6695 48.759 94.6127C49.1967 93.556 49.422 92.4234 49.422 91.2796V34.4813H49.9713V23.7692Z" fill="#3F3D56"/>
<path d="M47.5683 9.23224V91.6714C47.5682 93.3967 46.8828 95.0513 45.6629 96.2713C44.4429 97.4912 42.7882 98.1767 41.0629 98.1768H9.02661C8.17248 98.1767 7.32673 98.0083 6.53767 97.6813C5.7486 97.3543 5.03169 96.8751 4.42787 96.271C3.82404 95.6669 3.34512 94.9497 3.01848 94.1605C2.69184 93.3713 2.52388 92.5255 2.52417 91.6714V9.23224C2.52419 7.50769 3.20927 5.85379 4.42871 4.63435C5.64815 3.41491 7.30206 2.72982 9.02661 2.7298H12.9133C12.7226 3.19898 12.65 3.70783 12.702 4.21161C12.754 4.71539 12.929 5.19868 13.2116 5.619C13.4941 6.03932 13.8756 6.3838 14.3225 6.62215C14.7693 6.8605 15.2679 6.98543 15.7744 6.98595H34.0403C34.5473 6.9869 35.0467 6.86293 35.4944 6.62498C35.9421 6.38703 36.3242 6.04244 36.6071 5.62168C36.8899 5.20092 37.0647 4.71695 37.1161 4.21256C37.1674 3.70817 37.0936 3.19891 36.9014 2.7298H41.0629C42.7878 2.72971 44.4421 3.41467 45.662 4.63405C46.8819 5.85343 47.5676 7.50739 47.5683 9.23224Z" fill="white"/>
<path d="M42.4851 30.7951H5.2439V40.8443H42.4851V30.7951Z" fill="#A7B2BA"/>
<path d="M43.9628 39.071H7.90379C7.6687 39.0707 7.44331 38.9772 7.27708 38.811C7.11085 38.6448 7.01735 38.4194 7.01709 38.1843V29.3173C7.01735 29.0822 7.11085 28.8569 7.27708 28.6906C7.44331 28.5244 7.6687 28.4309 7.90379 28.4306H43.9628C44.1978 28.4309 44.4232 28.5244 44.5895 28.6906C44.7557 28.8569 44.8492 29.0822 44.8494 29.3173V38.1843C44.8492 38.4194 44.7557 38.6448 44.5895 38.811C44.4232 38.9772 44.1978 39.0707 43.9628 39.071ZM7.90379 29.0218C7.82542 29.0218 7.75028 29.053 7.69487 29.1084C7.63945 29.1638 7.6083 29.239 7.60822 29.3173V38.1843C7.60827 38.2627 7.63943 38.3378 7.69485 38.3932C7.75027 38.4486 7.82541 38.4798 7.90379 38.4799H43.9628C44.0411 38.4798 44.1163 38.4486 44.1717 38.3932C44.2271 38.3378 44.2583 38.2627 44.2583 38.1843V29.3173C44.2582 29.239 44.2271 29.1638 44.1717 29.1084C44.1163 29.053 44.0411 29.0218 43.9628 29.0218H7.90379Z" fill="#3F3D56"/>
<path d="M14.1106 36.4109H9.38159V37.0021H14.1106V36.4109Z" fill="#3F3D56"/>
<path d="M20.6126 36.4109H15.8835V37.0021H20.6126V36.4109Z" fill="#3F3D56"/>
<path d="M27.1153 36.4109H22.3862V37.0021H27.1153V36.4109Z" fill="#3F3D56"/>
<path d="M33.618 36.4109H28.8889V37.0021H33.618V36.4109Z" fill="#3F3D56"/>
<path d="M40.1202 36.4109H35.3911V37.0021H40.1202V36.4109Z" fill="#3F3D56"/>
<path d="M42.4851 46.1577H5.2439V56.2069H42.4851V46.1577Z" fill="#A7B2BA"/>
<path d="M43.9628 54.4336H7.90379C7.6687 54.4333 7.44331 54.3398 7.27708 54.1736C7.11085 54.0073 7.01735 53.782 7.01709 53.5469V44.6799C7.01735 44.4448 7.11085 44.2194 7.27708 44.0532C7.44331 43.887 7.6687 43.7935 7.90379 43.7932H43.9628C44.1978 43.7935 44.4232 43.887 44.5895 44.0532C44.7557 44.2194 44.8492 44.4448 44.8494 44.6799V53.5469C44.8492 53.782 44.7557 54.0073 44.5895 54.1736C44.4232 54.3398 44.1978 54.4333 43.9628 54.4336ZM7.90379 44.3843C7.82542 44.3844 7.75028 44.4156 7.69487 44.471C7.63945 44.5264 7.6083 44.6015 7.60822 44.6799V53.5469C7.60827 53.6252 7.63943 53.7004 7.69485 53.7558C7.75027 53.8112 7.82541 53.8424 7.90379 53.8424H43.9628C44.0411 53.8424 44.1163 53.8112 44.1717 53.7558C44.2271 53.7004 44.2583 53.6252 44.2583 53.5469V44.6799C44.2582 44.6015 44.2271 44.5264 44.1717 44.471C44.1163 44.4156 44.0411 44.3844 43.9628 44.3843H7.90379Z" fill="#3F3D56"/>
<path d="M14.1106 51.7734H9.38159V52.3645H14.1106V51.7734Z" fill="#3F3D56"/>
<path d="M20.6126 51.7734H15.8835V52.3645H20.6126V51.7734Z" fill="#3F3D56"/>
<path d="M27.1153 51.7734H22.3862V52.3645H27.1153V51.7734Z" fill="#3F3D56"/>
<path d="M33.618 51.7734H28.8889V52.3645H33.618V51.7734Z" fill="#3F3D56"/>
<path d="M40.1202 51.7734H35.3911V52.3645H40.1202V51.7734Z" fill="#3F3D56"/>
<path opacity="0.1" d="M47.5683 83.289V91.6713C47.5682 93.3966 46.8828 95.0512 45.6629 96.2712C44.4429 97.4912 42.7882 98.1766 41.0629 98.1767H9.02661C8.17248 98.1766 7.32673 98.0082 6.53767 97.6812C5.7486 97.3542 5.03169 96.875 4.42787 96.2709C3.82404 95.6668 3.34512 94.9497 3.01848 94.1605C2.69184 93.3712 2.52388 92.5254 2.52417 91.6713V53.1118L47.5683 83.289Z" fill="#A6A6A6"/>
<path d="M19.6316 23.3602C21.4272 23.3602 22.8828 21.9046 22.8828 20.109C22.8828 18.3134 21.4272 16.8578 19.6316 16.8578C17.836 16.8578 16.3804 18.3134 16.3804 20.109C16.3804 21.9046 17.836 23.3602 19.6316 23.3602Z" fill="#3F3D56"/>
<path d="M35.592 88.6802C37.3876 88.6802 38.8433 87.2246 38.8433 85.429C38.8433 83.6334 37.3876 82.1777 35.592 82.1777C33.7964 82.1777 32.3408 83.6334 32.3408 85.429C32.3408 87.2246 33.7964 88.6802 35.592 88.6802Z" fill="#3F3D56"/>
<path d="M96.7851 53.3412H53.251V83.8151H96.7851V53.3412Z" fill="#E85D43"/>
<path d="M101.138 81.4207H59.3456C58.8839 81.4202 58.4413 81.2366 58.1148 80.9102C57.7883 80.5837 57.6047 80.1411 57.6042 79.6794V50.9469C57.6047 50.4852 57.7883 50.0425 58.1148 49.7161C58.4413 49.3896 58.8839 49.206 59.3456 49.2055H101.138C101.6 49.206 102.043 49.3896 102.369 49.7161C102.696 50.0425 102.879 50.4852 102.88 50.9469V79.6794C102.879 80.1411 102.696 80.5837 102.369 80.9102C102.043 81.2366 101.6 81.4202 101.138 81.4207ZM59.3456 50.9469V79.6794H101.14L101.138 50.9469H59.3456Z" fill="#3F3D56"/>
<path d="M96.35 49.8585H94.6086C94.6086 46.0483 93.0951 42.3942 90.4009 39.7C87.7067 37.0058 84.0525 35.4922 80.2424 35.4922C76.4322 35.4922 72.7781 37.0058 70.0839 39.7C67.3897 42.3942 65.8761 46.0483 65.8761 49.8585H64.1348C64.1348 45.5864 65.8318 41.4894 68.8526 38.4686C71.8733 35.4479 75.9704 33.7508 80.2424 33.7508C84.5144 33.7508 88.6114 35.4479 91.6322 38.4686C94.653 41.4894 96.35 45.5864 96.35 49.8585Z" fill="#3F3D56"/>
<path d="M84.595 61.8304C84.5958 61.0723 84.3987 60.3271 84.0231 59.6686C83.6476 59.0101 83.1066 58.461 82.4536 58.0758C81.8007 57.6906 81.0585 57.4825 80.3005 57.4723C79.5425 57.462 78.7949 57.6498 78.1318 58.0172C77.4687 58.3845 76.9129 58.9187 76.5196 59.5668C76.1264 60.2149 75.9091 60.9544 75.8894 61.7122C75.8697 62.4701 76.0482 63.2199 76.4073 63.8876C76.7664 64.5552 77.2936 65.1175 77.9368 65.5188V70.1915C77.9368 70.4941 77.9964 70.7938 78.1122 71.0735C78.2281 71.3531 78.3978 71.6072 78.6118 71.8212C78.8258 72.0352 79.0799 72.205 79.3595 72.3208C79.6392 72.4366 79.9389 72.4962 80.2415 72.4962C80.8528 72.4962 81.439 72.2534 81.8712 71.8212C82.3035 71.389 82.5463 70.8027 82.5463 70.1915V65.5188C83.1729 65.1286 83.6898 64.5852 84.0482 63.9399C84.4067 63.2946 84.5948 62.5686 84.595 61.8304Z" fill="#3F3D56"/>
</svg>
